<svg width="20" height="20" viewBox="0 0 20 20" fill="none" xmlns="http://www.w3.org/2000/svg">
<g clip-path="url(#clip0_1_464)">
<path d="M19.9804 5.96888C19.9336 4.94222 19.7617 4.23641 19.5156 3.62481C19.2616 2.97561 18.8709 2.39439 18.359 1.91121C17.8589 1.42052 17.2533 1.03923 16.5891 0.797714C15.9524 0.559887 15.2256 0.393864 14.163 0.348599C13.0924 0.2995 12.7525 0.288147 10.0371 0.288147C7.32173 0.288147 6.98185 0.2995 5.91521 0.344766C4.85253 0.390031 4.12195 0.556201 3.48904 0.793881C2.81692 1.03923 2.2153 1.41669 1.71517 1.91121C1.20726 2.39439 0.812743 2.97945 0.562603 3.62112C0.31643 4.23641 0.144583 4.93839 0.0977294 5.96504C0.0469078 6.99937 0.0351562 7.32772 0.0351562 9.95105C0.0351562 12.5744 0.0469078 12.9027 0.0937614 13.9332C0.140615 14.9599 0.312615 15.6657 0.558787 16.2773C0.812743 16.9265 1.20726 17.5077 1.71517 17.9909C2.2153 18.4816 2.82088 18.8629 3.48508 19.1044C4.12195 19.3422 4.84856 19.5082 5.91139 19.5535C6.97788 19.5989 7.31791 19.6101 10.0333 19.6101C12.7487 19.6101 13.0885 19.5989 14.1552 19.5535C15.2179 19.5082 15.9484 19.3422 16.5813 19.1044C17.9254 18.6023 18.9881 17.5757 19.5078 16.2773C19.7538 15.662 19.9258 14.9599 19.9727 13.9332C20.0195 12.9027 20.0313 12.5744 20.0313 9.95105C20.0313 7.32772 20.0273 6.99937 19.9804 5.96888ZM18.1794 13.8577C18.1364 14.8014 17.9723 15.3109 17.8356 15.6507C17.4995 16.4924 16.808 17.1605 15.9367 17.4852C15.5851 17.6173 15.0538 17.7758 14.0809 17.8172C13.026 17.8626 12.7096 17.8738 10.0411 17.8738C7.37255 17.8738 7.05221 17.8626 6.00113 17.8172C5.02438 17.7758 4.49693 17.6173 4.1453 17.4852C3.71171 17.3303 3.31704 17.085 2.9967 16.7642C2.6646 16.4508 2.41065 16.0734 2.2504 15.6545C2.11365 15.3148 1.94959 14.8014 1.90671 13.8616C1.8597 12.8424 1.8481 12.5366 1.8481 9.95857C1.8481 7.38051 1.8597 7.07102 1.90671 6.05572C1.94959 5.11208 2.11365 4.60251 2.2504 4.2628C2.41065 3.84376 2.6646 3.46262 3.00067 3.15299C3.32483 2.83215 3.71553 2.5868 4.14927 2.43213C4.5009 2.30002 5.03231 2.14152 6.0051 2.09994C7.05999 2.05468 7.37652 2.04332 10.0449 2.04332C12.7174 2.04332 13.0337 2.05468 14.0848 2.09994C15.0616 2.14152 15.589 2.30002 15.9407 2.43213C16.3742 2.5868 16.7689 2.83215 17.0893 3.15299C17.4213 3.46631 17.6753 3.84376 17.8356 4.2628C17.9723 4.60251 18.1364 5.11577 18.1794 6.05572C18.2263 7.07486 18.238 7.38051 18.238 9.95857C18.238 12.5366 18.2263 12.8386 18.1794 13.8577Z" fill="white"/>
<path d="M10.0371 4.98743C7.20074 4.98743 4.89941 7.21059 4.89941 9.95099C4.89941 12.6914 7.20074 14.9146 10.0371 14.9146C12.8737 14.9146 15.1749 12.6914 15.1749 9.95099C15.1749 7.21059 12.8737 4.98743 10.0371 4.98743ZM10.0371 13.1707C8.19702 13.1707 6.70442 11.7289 6.70442 9.95099C6.70442 8.17311 8.19702 6.73125 10.0371 6.73125C11.8774 6.73125 13.3698 8.17311 13.3698 9.95099C13.3698 11.7289 11.8774 13.1707 10.0371 13.1707Z" fill="white"/>
<path d="M16.5775 4.79127C16.5775 5.43118 16.0404 5.95004 15.3779 5.95004C14.7155 5.95004 14.1785 5.43118 14.1785 4.79127C14.1785 4.15122 14.7155 3.63251 15.3779 3.63251C16.0404 3.63251 16.5775 4.15122 16.5775 4.79127Z" fill="white"/>
</g>
<defs>
<clipPath id="clip0_1_464">
<rect width="20" height="19.322" fill="white" transform="translate(0 0.288147)"/>
</clipPath>
</defs>
</svg>
