<svg width="20" height="20" viewBox="0 0 20 20" fill="none" xmlns="http://www.w3.org/2000/svg">
<g clip-path="url(#clip0_1_448)">
<path d="M19.9951 19.6102V19.6094H20.0001V12.5231C20.0001 9.05639 19.2276 6.38593 15.0326 6.38593C13.0159 6.38593 11.6626 7.45508 11.1101 8.46868H11.0517V6.70957H7.07422V19.6094H11.2159V13.2219C11.2159 11.5401 11.5459 9.91381 13.7017 9.91381C15.8259 9.91381 15.8576 11.8331 15.8576 13.3298V19.6102H19.9951Z" fill="#AFB1B8"/>
<path d="M0.329956 6.71027H4.47662V19.6101H0.329956V6.71027Z" fill="#AFB1B8"/>
<path d="M2.40167 0.288147C1.07583 0.288147 0 1.32751 0 2.6084C0 3.88929 1.07583 4.95039 2.40167 4.95039C3.7275 4.95039 4.80333 3.88929 4.80333 2.6084C4.8025 1.32751 3.72667 0.288147 2.40167 0.288147V0.288147Z" fill="#AFB1B8"/>
</g>
<defs>
<clipPath id="clip0_1_448">
<rect width="20" height="19.322" fill="white" transform="translate(0 0.288147)"/>
</clipPath>
</defs>
</svg>
