<svg width="20" height="20" viewBox="0 0 20 20" fill="none" xmlns="http://www.w3.org/2000/svg">
<g clip-path="url(#clip0_1_458)">
<path d="M20 3.95815C19.2563 4.27334 18.4637 4.48226 17.6375 4.5837C18.4875 4.0934 19.1363 3.32294 19.4412 2.39427C18.6488 2.85075 17.7738 3.17319 16.8412 3.35313C16.0887 2.57904 15.0162 2.09961 13.8462 2.09961C11.5763 2.09961 9.74875 3.87965 9.74875 6.06183C9.74875 6.37582 9.77625 6.67772 9.84375 6.96514C6.435 6.80452 3.41875 5.22616 1.3925 2.82177C1.03875 3.41472 0.83125 4.0934 0.83125 4.82402C0.83125 6.19588 1.5625 7.41196 2.6525 8.11601C1.99375 8.10393 1.3475 7.91916 0.8 7.62813C0.8 7.6402 0.8 7.6559 0.8 7.6716C0.8 9.59656 2.22125 11.1955 4.085 11.5638C3.75125 11.6519 3.3875 11.6942 3.01 11.6942C2.7475 11.6942 2.4825 11.6797 2.23375 11.6266C2.765 13.1953 4.2725 14.3486 6.065 14.386C4.67 15.4403 2.89875 16.0755 0.98125 16.0755C0.645 16.0755 0.3225 16.061 0 16.0211C1.81625 17.1527 3.96875 17.7988 6.29 17.7988C13.835 17.7988 17.96 11.7606 17.96 6.52677C17.96 6.35166 17.9538 6.1826 17.945 6.01474C18.7588 5.45681 19.4425 4.76001 20 3.95815Z" fill="#AFB1B8"/>
</g>
<defs>
<clipPath id="clip0_1_458">
<rect width="20" height="19.322" fill="white" transform="translate(0 0.288147)"/>
</clipPath>
</defs>
</svg>
